<svg width="127" height="16" viewBox="0 0 127 16" fill="none" xmlns="http://www.w3.org/2000/svg">
<path d="M4.97445 15.4021V3.04045H0.769775V0.349823H12.023V3.04045H7.8137V15.4021H4.97445Z" fill="url(#paint0_linear_1_19)"/>
<path d="M21.0794 3.04045V6.5299H27.117V9.22207H21.0794V12.7115H27.7858V15.4021H18.2417V0.349823H27.7858V3.04045H21.0794Z" fill="url(#paint1_linear_1_19)"/>
<path d="M38.3612 7.53927L33.7989 0.349823H37.31L40.2328 5.26819H40.4L43.3229 0.349823H46.834L42.2717 7.53927L47.2133 15.4021H43.6805L40.4 9.98375H40.2328L36.9524 15.4021H33.4211L38.3612 7.53927Z" fill="url(#paint2_linear_1_19)"/>
<path d="M57.6616 0.349823H60.9003L66.5555 15.4021H63.4206L62.1821 11.8074H56.3798L55.1413 15.4021H52.0063L57.6616 0.349823ZM61.2532 9.2004L59.9079 5.43693L59.3645 3.60861H59.1958L58.6493 5.43693L57.304 9.2004H61.2532Z" fill="url(#paint3_linear_1_19)"/>
<path d="M79.2528 7.13988H86.6326C86.6803 7.34081 86.7155 7.54452 86.7379 7.74983C86.7657 7.98723 86.7796 8.22604 86.7797 8.46506C86.7858 9.39408 86.6367 10.3176 86.3385 11.1975C86.0433 12.0521 85.5682 12.8334 84.9452 13.4887C84.2662 14.2078 83.4418 14.774 82.527 15.1498C81.5047 15.5587 80.4109 15.7592 79.31 15.7397C78.2493 15.7472 77.1974 15.5468 76.2138 15.1498C75.2727 14.7752 74.4151 14.218 73.6904 13.5104C72.9675 12.7975 72.3893 11.9517 71.9874 11.0195C71.5716 10.0236 71.3574 8.95518 71.3574 7.87601C71.3574 6.79683 71.5716 5.72837 71.9874 4.73255C72.3893 3.80028 72.9675 2.95447 73.6904 2.24164C74.419 1.53372 75.2809 0.977508 76.2262 0.605281C78.2732 -0.195535 80.5495 -0.180572 82.5858 0.647083C83.5242 1.04942 84.368 1.64373 85.0628 2.3918L83.1076 4.30528C82.3738 3.55751 81.4366 3.04156 80.4124 2.82141C79.3881 2.60125 78.3217 2.68657 77.3455 3.06679C76.7349 3.30489 76.1789 3.66429 75.7112 4.12328C75.2434 4.58228 74.8735 5.13133 74.6239 5.73728C74.0769 7.10743 74.0769 8.63529 74.6239 10.0054C74.8796 10.6191 75.2591 11.1735 75.7385 11.634C76.2086 12.0835 76.7618 12.4368 77.3671 12.6744C78.6569 13.1585 80.0772 13.1662 81.3721 12.6961C81.8945 12.4847 82.3751 12.1822 82.7917 11.8028C83.088 11.5293 83.3333 11.2053 83.5163 10.8461C83.7279 10.4368 83.8871 10.0025 83.99 9.55338H79.2589L79.2528 7.13988Z" fill="url(#paint4_linear_1_19)"/>
<path d="M100.467 15.7397C99.3956 15.749 98.3334 15.5415 97.3444 15.1297C96.4113 14.7426 95.5646 14.1737 94.8536 13.4561C94.1426 12.7384 93.5815 11.8864 93.2032 10.9498C92.4043 8.97418 92.4043 6.76545 93.2032 4.78984C93.5815 3.85319 94.1426 3.00121 94.8536 2.28358C95.5646 1.56594 96.4113 0.997011 97.3444 0.609933C99.3466 -0.203311 101.587 -0.203311 103.589 0.609933C104.523 0.997011 105.369 1.56594 106.08 2.28358C106.791 3.00121 107.352 3.85319 107.731 4.78984C108.53 6.76545 108.53 8.97418 107.731 10.9498C107.352 11.8864 106.791 12.7384 106.08 13.4561C105.369 14.1737 104.523 14.7426 103.589 15.1297C102.6 15.5415 101.538 15.749 100.467 15.7397ZM100.467 13.0475C101.141 13.053 101.809 12.9246 102.433 12.6698C103.029 12.4269 103.572 12.0698 104.031 11.6186C104.496 11.1543 104.861 10.5994 105.104 9.98841C105.622 8.62726 105.622 7.1232 105.104 5.76205C104.861 5.15168 104.496 4.59744 104.031 4.13343C103.572 3.68223 103.029 3.32514 102.433 3.08227C101.171 2.57859 99.7632 2.57859 98.5008 3.08227C97.905 3.32556 97.3624 3.6826 96.9032 4.13343C96.4382 4.59711 96.0735 5.15147 95.8319 5.76205C95.3117 7.12283 95.3117 8.62763 95.8319 9.98841C96.0731 10.5996 96.4378 11.1546 96.9032 11.6186C97.3624 12.0694 97.905 12.4265 98.5008 12.6698C99.1247 12.9246 99.793 13.053 100.467 13.0475Z" fill="url(#paint5_linear_1_19)"/>
<path d="M114.827 0.349823H118.128L124.183 10.4404H124.351L124.183 7.53927V0.349823H127V15.4021H124.014L117.623 4.74337H117.45L117.619 7.64454V15.4021H114.823L114.827 0.349823Z" fill="url(#paint6_linear_1_19)"/>
<defs>
<linearGradient id="paint0_linear_1_19" x1="0.769775" y1="7.87521" x2="127" y2="7.87521" gradientUnits="userSpaceOnUse">
<stop stop-color="white"/>
<stop offset="0.32" stop-color="#FCFCFC"/>
<stop offset="0.57" stop-color="#F2F2F2"/>
<stop offset="0.8" stop-color="#E1E1E1"/>
<stop offset="1" stop-color="#CCCCCC"/>
</linearGradient>
<linearGradient id="paint1_linear_1_19" x1="0.769668" y1="7.87521" x2="127" y2="7.87521" gradientUnits="userSpaceOnUse">
<stop stop-color="white"/>
<stop offset="0.32" stop-color="#FCFCFC"/>
<stop offset="0.57" stop-color="#F2F2F2"/>
<stop offset="0.8" stop-color="#E1E1E1"/>
<stop offset="1" stop-color="#CCCCCC"/>
</linearGradient>
<linearGradient id="paint2_linear_1_19" x1="0.769843" y1="7.87521" x2="127" y2="7.87521" gradientUnits="userSpaceOnUse">
<stop stop-color="white"/>
<stop offset="0.32" stop-color="#FCFCFC"/>
<stop offset="0.57" stop-color="#F2F2F2"/>
<stop offset="0.8" stop-color="#E1E1E1"/>
<stop offset="1" stop-color="#CCCCCC"/>
</linearGradient>
<linearGradient id="paint3_linear_1_19" x1="0.76995" y1="7.87521" x2="127" y2="7.87521" gradientUnits="userSpaceOnUse">
<stop stop-color="white"/>
<stop offset="0.32" stop-color="#FCFCFC"/>
<stop offset="0.57" stop-color="#F2F2F2"/>
<stop offset="0.8" stop-color="#E1E1E1"/>
<stop offset="1" stop-color="#CCCCCC"/>
</linearGradient>
<linearGradient id="paint4_linear_1_19" x1="0.769499" y1="7.87523" x2="127" y2="7.87523" gradientUnits="userSpaceOnUse">
<stop stop-color="white"/>
<stop offset="0.32" stop-color="#FCFCFC"/>
<stop offset="0.57" stop-color="#F2F2F2"/>
<stop offset="0.8" stop-color="#E1E1E1"/>
<stop offset="1" stop-color="#CCCCCC"/>
</linearGradient>
<linearGradient id="paint5_linear_1_19" x1="0.769905" y1="7.87523" x2="127" y2="7.87523" gradientUnits="userSpaceOnUse">
<stop stop-color="white"/>
<stop offset="0.32" stop-color="#FCFCFC"/>
<stop offset="0.57" stop-color="#F2F2F2"/>
<stop offset="0.8" stop-color="#E1E1E1"/>
<stop offset="1" stop-color="#CCCCCC"/>
</linearGradient>
<linearGradient id="paint6_linear_1_19" x1="0.770171" y1="7.87521" x2="127" y2="7.87521" gradientUnits="userSpaceOnUse">
<stop stop-color="white"/>
<stop offset="0.32" stop-color="#FCFCFC"/>
<stop offset="0.57" stop-color="#F2F2F2"/>
<stop offset="0.8" stop-color="#E1E1E1"/>
<stop offset="1" stop-color="#CCCCCC"/>
</linearGradient>
</defs>
</svg>
